<?xml version="1.0" encoding="UTF-8" standalone="no"?>
<svg
   width="122.81511"
   height="107.46322"
   viewBox="0 0 122.81511 107.46322"
   fill="none"
   version="1.1"
   id="svg24"
   sodipodi:docname="aisi_logo.svg"
   inkscape:version="1.3.2 (091e20e, 2023-11-25)"
   xmlns:inkscape="http://www.inkscape.org/namespaces/inkscape"
   xmlns:sodipodi="http://sodipodi.sourceforge.net/DTD/sodipodi-0.dtd"
   xmlns="http://www.w3.org/2000/svg"
   xmlns:svg="http://www.w3.org/2000/svg">
  <sodipodi:namedview
     id="namedview24"
     pagecolor="#ffffff"
     bordercolor="#000000"
     borderopacity="0.25"
     inkscape:showpageshadow="2"
     inkscape:pageopacity="0.0"
     inkscape:pagecheckerboard="0"
     inkscape:deskcolor="#d1d1d1"
     inkscape:export-bgcolor="#ffffffff"
     inkscape:zoom="1.7587413"
     inkscape:cx="145.27435"
     inkscape:cy="53.73161"
     inkscape:window-width="1920"
     inkscape:window-height="970"
     inkscape:window-x="1512"
     inkscape:window-y="25"
     inkscape:window-maximized="1"
     inkscape:current-layer="svg24" />
  <rect
     style="fill:#ffffff;stroke-width:6.29291"
     id="rect27"
     width="122.81511"
     height="107.46322"
     x="0"
     y="0" />
  <g
     clip-path="url(#clipPath25)"
     id="g24"
     transform="translate(2.274354,29.568554)">
    <path
       d="m 53.7019,0.230469 h -5.968 V 47.6157 h 5.968 z"
       fill="#f90d29"
       id="path1" />
    <path
       d="m 107.312,0.230469 h -5.968 V 47.6157 h 5.968 z"
       fill="#f90d29"
       id="path2" />
    <path
       d="M 41.1464,47.6166 H 34.7945 L 20.5745,8.54227 6.3519,47.6166 H 0 L 17.2471,0.232422 h 6.6527 z"
       fill="#f90d29"
       id="path3" />
    <path
       d="M 80.1392,47.5123 H 61.9365 v -5.968 h 18.2027 c 4.0657,0 7.3737,-3.3079 7.3737,-7.3737 0,-4.0658 -3.308,-7.3764 -7.3737,-7.3764 h -4.9804 c -7.3564,0 -13.3412,-5.9848 -13.3412,-13.3417 0,-7.35688 5.9843,-13.341172 13.3412,-13.341172 H 93.4809 V 6.07931 H 75.1588 c -4.0658,0 -7.3737,3.30795 -7.3737,7.37369 0,4.0658 3.3079,7.3738 7.3737,7.3738 h 4.9804 c 7.3563,0 13.3411,5.9848 13.3411,13.3412 0,7.3564 -5.9848,13.3443 -13.3411,13.3443 z"
       fill="#f90d29"
       id="path4" />
    <path
       d="m 123.979,0.240234 h -1.236 V 47.6028 h 1.236 z"
       fill="#101828"
       id="path5" />
    <path
       d="m 144.816,19.6826 -2.416,-6.172 h -7.778 l -2.39,6.172 h -2.283 l 7.672,-19.485334 h 1.898 l 7.633,19.485834 h -2.336 z m -3.12,-8.2031 -2.257,-6.01318 c -0.291,-0.76099 -0.593,-1.69447 -0.902,-2.80098 -0.195,0.84934 -0.473,1.78335 -0.836,2.80098 l -2.283,6.01318 z"
       fill="#101828"
       id="path6" />
    <path
       d="M 149.956,19.6833 V 0.277344 h 2.257 V 19.6833 Z"
       fill="#101828"
       id="path7" />
    <path
       d="m 175.819,14.5199 c 0,1.7081 -0.619,3.0397 -1.858,3.9953 -1.239,0.9556 -2.92,1.4336 -5.044,1.4336 -2.301,0 -4.071,-0.2966 -5.31,-0.8893 v -2.1767 c 0.797,0.3366 1.664,0.6016 2.602,0.7962 0.938,0.1946 1.867,0.2919 2.787,0.2919 1.504,0 2.637,-0.2856 3.398,-0.8562 0.761,-0.5706 1.142,-1.3647 1.142,-2.3829 0,-0.6726 -0.135,-1.2232 -0.405,-1.6524 -0.27,-0.4291 -0.721,-0.8251 -1.354,-1.188 -0.632,-0.3629 -1.595,-0.7741 -2.887,-1.2343 -1.805,-0.6458 -3.095,-1.41152 -3.869,-2.29609 -0.775,-0.88458 -1.161,-2.03947 -1.161,-3.46467 0,-1.49515 0.562,-2.68581 1.685,-3.57091 1.124,-0.88457 2.611,-1.32738312 4.461,-1.32738312 1.849,0 3.703,0.35393512 5.322,1.06180312 l -0.703,1.96426 c -1.602,-0.67263 -3.159,-1.00869 -4.673,-1.00869 -1.194,0 -2.128,0.25665 -2.8,0.76993 -0.673,0.51329 -1.009,1.22589 -1.009,2.13728 0,0.67264 0.123,1.22326 0.372,1.6524 0.247,0.42914 0.665,0.82304 1.254,1.18119 0.588,0.35814 1.489,0.75467 2.701,1.18802 2.035,0.72575 3.436,1.50466 4.201,2.33606 0.765,0.832 1.148,1.9117 1.148,3.2385 z"
       fill="#101828"
       id="path8" />
    <path
       d="M 190.742,19.6833 H 179.924 V 0.277344 h 10.818 V 2.28157 h -8.562 v 6.25198 h 8.044 v 1.99105 h -8.044 v 7.1413 h 8.562 z"
       fill="#101828"
       id="path9" />
    <path
       d="m 203.488,2.01685 c -2.133,0 -3.816,0.70997 -5.051,2.13045 -1.234,1.42047 -1.852,3.36475 -1.852,5.83388 0,2.46912 0.595,4.50232 1.786,5.88702 1.19,1.3852 2.887,2.0773 5.09,2.0773 1.354,0 2.898,-0.2435 4.633,-0.73 v 1.978 c -1.345,0.5043 -3.005,0.7568 -4.978,0.7568 -2.858,0 -5.064,-0.8673 -6.617,-2.6017 -1.553,-1.7344 -2.329,-4.1988 -2.329,-7.39319 0,-1.9995 0.374,-3.75182 1.122,-5.25644 0.748,-1.50409 1.827,-2.66371 3.238,-3.47782 C 199.942,0.407052 201.603,0 203.514,0 c 2.035,0 3.814,0.371816 5.336,1.11492 l -0.956,1.93797 C 206.426,2.3629 204.956,2.01738 203.487,2.01738 Z"
       fill="#101828"
       id="path10" />
    <path
       d="M 227.119,0.277344 V 12.8344 c 0,2.2125 -0.669,3.9511 -2.005,5.2165 -1.336,1.2653 -3.172,1.898 -5.509,1.898 -2.336,0 -4.143,-0.6369 -5.422,-1.9117 -1.279,-1.2743 -1.918,-3.0266 -1.918,-5.2564 V 0.277344 h 2.257 V 12.9406 c 0,1.6193 0.442,2.8626 1.327,3.7298 0.885,0.8672 2.186,1.3005 3.903,1.3005 1.716,0 2.898,-0.4359 3.783,-1.3074 0.884,-0.8714 1.327,-2.1215 1.327,-3.7497 V 0.277344 Z"
       fill="#101828"
       id="path11" />
    <path
       d="m 234.648,11.6133 v 8.0705 h -2.257 V 0.277344 h 5.323 c 2.38,0 4.139,0.455961 5.276,1.367356 1.137,0.9114 1.706,2.28296 1.706,4.11469 0,2.56642 -1.301,4.30091 -3.902,5.20331 l 5.269,8.7206 h -2.668 l -4.699,-8.0706 h -4.048 z m 0,-1.93801 h 3.093 c 1.593,0 2.761,-0.31607 3.504,-0.94926 0.743,-0.63267 1.115,-1.5814 1.115,-2.84726 0,-1.26585 -0.378,-2.20775 -1.135,-2.77415 -0.757,-0.5664 -1.971,-0.84934 -3.643,-0.84934 h -2.934 z"
       fill="#101828"
       id="path12" />
    <path
       d="M 249.332,19.6833 V 0.277344 h 2.256 V 19.6833 Z"
       fill="#101828"
       id="path13" />
    <path
       d="m 263.02,19.6833 h -2.257 V 2.28157 h -6.145 V 0.277344 h 14.548 V 2.28157 h -6.146 z"
       fill="#101828"
       id="path14" />
    <path
       d="m 278.03,9.98032 5.176,-9.702976 h 2.442 L 279.171,12.157 v 7.5263 h -2.283 v -7.42 L 270.423,0.277344 h 2.469 z"
       fill="#101828"
       id="path15" />
    <path
       d="M 132.617,47.7321 V 28.3262 h 2.257 v 19.4059 z"
       fill="#101828"
       id="path16" />
    <path
       d="M 156.034,47.7321 H 153.46 L 142.854,31.4453 h -0.107 c 0.142,1.9112 0.213,3.6635 0.213,5.2565 v 11.0303 h -2.084 V 28.3262 h 2.548 l 10.579,16.2205 h 0.107 c -0.018,-0.2388 -0.058,-1.0066 -0.12,-2.3029 -0.062,-1.2964 -0.084,-2.2236 -0.066,-2.781 V 28.3262 h 2.11 z"
       fill="#101828"
       id="path17" />
    <path
       d="m 173.001,42.5696 c 0,1.7082 -0.619,3.0398 -1.858,3.9953 -1.239,0.9556 -2.921,1.4337 -5.044,1.4337 -2.301,0 -4.071,-0.2967 -5.31,-0.8893 v -2.1768 c 0.796,0.3366 1.664,0.6017 2.602,0.7962 0.937,0.1946 1.867,0.2919 2.787,0.2919 1.504,0 2.637,-0.2855 3.398,-0.8561 0.761,-0.5707 1.142,-1.3648 1.142,-2.3824 0,-0.6726 -0.136,-1.2233 -0.405,-1.6524 -0.27,-0.4291 -0.722,-0.8251 -1.354,-1.188 -0.633,-0.3629 -1.595,-0.7742 -2.887,-1.2343 -1.806,-0.6458 -3.095,-1.4116 -3.869,-2.2961 -0.775,-0.8846 -1.162,-2.0395 -1.162,-3.4647 0,-1.4952 0.562,-2.6858 1.686,-3.5704 1.124,-0.8846 2.611,-1.3274 4.46,-1.3274 1.85,0 3.704,0.354 5.323,1.0618 l -0.704,1.9643 c -1.602,-0.6726 -3.159,-1.0087 -4.672,-1.0087 -1.195,0 -2.128,0.2566 -2.801,0.7699 -0.672,0.5133 -1.009,1.2259 -1.009,2.1373 0,0.6727 0.124,1.2233 0.372,1.6524 0.248,0.4292 0.666,0.8231 1.255,1.1812 0.588,0.3581 1.488,0.7547 2.701,1.188 2.035,0.7258 3.435,1.5046 4.201,2.3361 0.765,0.832 1.148,1.9111 1.148,3.2385 z"
       fill="#101828"
       id="path18" />
    <path
       d="m 183.622,47.7321 h -2.256 V 30.3304 h -6.146 v -2.0042 h 14.548 v 2.0042 h -6.146 z"
       fill="#101828"
       id="path19" />
    <path
       d="M 193.368,47.7321 V 28.3262 h 2.257 v 19.4059 z"
       fill="#101828"
       id="path20" />
    <path
       d="m 207.6,47.7321 h -2.256 V 30.3304 h -6.146 v -2.0042 h 14.548 v 2.0042 H 207.6 Z"
       fill="#101828"
       id="path21" />
    <path
       d="m 232,28.3262 v 12.557 c 0,2.2125 -0.669,3.9512 -2.004,5.2165 -1.337,1.2653 -3.173,1.898 -5.509,1.898 -2.337,0 -4.144,-0.6374 -5.422,-1.9111 -1.279,-1.2743 -1.918,-3.0266 -1.918,-5.2565 V 28.3262 h 2.256 v 12.6633 c 0,1.6192 0.443,2.863 1.328,3.7297 0.884,0.8672 2.185,1.3006 3.902,1.3006 1.717,0 2.898,-0.436 3.783,-1.3074 0.884,-0.8715 1.327,-2.1215 1.327,-3.7497 V 28.3262 Z"
       fill="#101828"
       id="path22" />
    <path
       d="m 243.79,47.7321 h -2.257 V 30.3304 h -6.146 v -2.0042 h 14.549 v 2.0042 h -6.146 z"
       fill="#101828"
       id="path23" />
    <path
       d="M 264.353,47.7321 H 253.535 V 28.3262 h 10.818 v 2.0042 h -8.561 v 6.252 h 8.043 v 1.9911 h -8.043 v 7.1412 h 8.561 z"
       fill="#101828"
       id="path24" />
  </g>
  <defs
     id="defs24">
    <clipPath
       id="clip0_2410_15134">
      <rect
         width="285.64899"
         height="48"
         fill="#ffffff"
         id="rect24"
         x="0"
         y="0" />
    </clipPath>
    <clipPath
       clipPathUnits="userSpaceOnUse"
       id="clipPath25">
      <rect
         style="fill:#000000;stroke-width:6.29291"
         id="rect26"
         width="123.3837"
         height="56.29026"
         x="-4.548708"
         y="-3.9801192" />
    </clipPath>
  </defs>
</svg>
